<?xml version="1.0" encoding="utf-8"?>
<!-- Generator: Adobe Illustrator 23.0.1, SVG Export Plug-In . SVG Version: 6.00 Build 0)  -->
<svg version="1.1" id="Layer_5" xmlns="http://www.w3.org/2000/svg" xmlns:xlink="http://www.w3.org/1999/xlink" x="0px" y="0px"
	 viewBox="0 0 512 512" style="enable-background:new 0 0 512 512;" xml:space="preserve">
<style type="text/css">
	.st0{fill:none;stroke:#FFFFFF;stroke-width:25;stroke-miterlimit:10;}
	.st1{fill:#FFFFFF;}
</style>
<circle class="st0" cx="269.4" cy="255.1" r="196.5"/>
<path class="st1" d="M293.7,257.4l82.6-82.6c5.4-5.4,5.4-14.1,0-19.4c-5.4-5.4-14.1-5.4-19.4,0L274.3,238l-82.6-82.6
	c-5.4-5.4-14.1-5.4-19.4,0c-5.4,5.4-5.4,14.1,0,19.4l82.6,82.6L172.2,340c-5.4,5.4-5.4,14.1,0,19.4c2.7,2.7,6.2,4,9.7,4s7-1.3,9.7-4
	l82.6-82.6l82.6,82.6c2.7,2.7,6.2,4,9.7,4c3.5,0,7-1.3,9.7-4c5.4-5.4,5.4-14.1,0-19.4L293.7,257.4z"/>
</svg>
