<?xml version="1.0" encoding="utf-8"?>
<!-- Generator: Adobe Illustrator 23.0.1, SVG Export Plug-In . SVG Version: 6.00 Build 0)  -->
<svg version="1.1" id="Layer_5" xmlns="http://www.w3.org/2000/svg" xmlns:xlink="http://www.w3.org/1999/xlink" x="0px" y="0px"
	 viewBox="0 0 512 512" style="enable-background:new 0 0 512 512;" xml:space="preserve">
<style type="text/css">
	.st0{fill:#FFFFFF;}
	.st1{fill:none;stroke:#FFFFFF;stroke-width:25;stroke-miterlimit:10;}
</style>
<path class="st0" d="M388.5,187.1c-0.8,4.5-3.6,8-5.8,10.2L253.9,326.1c-7,7-19.2,7-26.2,0L173,271.3c-2.2-2.2-5-5.8-5.8-10.2
	c-1.1-6.2,0.7-12.3,5.1-16.6c3.5-3.5,8.2-5.4,13.1-5.4c1.2,0,2.3,0.1,3.5,0.3c4.5,0.8,8,3.6,10.2,5.8l41.7,41.7l115.7-115.7
	c2.2-2.2,5.8-5,10.2-5.8c6.2-1.1,12.3,0.7,16.6,5.1C387.8,174.8,389.6,180.9,388.5,187.1L388.5,187.1z"/>
<circle class="st1" cx="277.8" cy="248.2" r="196.5"/>
</svg>
