<svg id="Capa_1" enable-background="new 0 0 512 512" height="512" viewBox="0 0 512 512" width="512" xmlns="http://www.w3.org/2000/svg"><g><g><path d="m158.033 19.487c-12.546 5.197-32.44 86.566-12.848 133.866s88.807 49.516 88.807 49.516 47.375-50.51 27.783-97.81-91.196-90.769-103.742-85.572z" fill="#27a0c1"/></g><g><path d="m353.967 492.513c12.546-5.197 32.44-86.566 12.848-133.866s-88.807-49.516-88.807-49.516-47.375 50.51-27.783 97.81 91.196 90.769 103.742 85.572z" fill="#27a0c1"/></g><g><path d="m19.487 158.033c-5.197 12.546 38.273 84.15 85.573 103.742s97.81-27.783 97.81-27.783-2.217-69.215-49.516-88.807-128.67.302-133.867 12.848z" fill="#00a45b"/></g><g><path d="m492.513 353.967c5.197-12.546-38.273-84.15-85.573-103.742s-97.81 27.783-97.81 27.783 2.217 69.215 49.516 88.807 128.67-.302 133.867-12.848z" fill="#00a45b"/></g><g><path d="m19.487 353.967c5.197 12.546 86.566 32.44 133.866 12.848s49.516-88.807 49.516-88.807-50.51-47.375-97.81-27.783-90.769 91.196-85.572 103.742z" fill="#514fba"/></g><g><path d="m492.513 158.033c-5.197-12.546-86.566-32.44-133.866-12.848s-49.516 88.807-49.516 88.807 50.51 47.375 97.81 27.783 90.769-91.196 85.572-103.742z" fill="#514fba"/></g><g><path d="m158.033 492.513c12.546 5.197 84.15-38.273 103.742-85.573s-27.783-97.81-27.783-97.81-69.215 2.217-88.807 49.516.302 128.67 12.848 133.867z" fill="#ea4965"/></g><g><path d="m353.967 19.487c-12.546-5.197-84.15 38.273-103.742 85.573s27.783 97.81 27.783 97.81 69.215-2.217 88.807-49.516-.302-128.67-12.848-133.867z" fill="#ea4965"/></g><g><path d="m74.981 74.981c-9.603 9.603 3.157 92.391 39.358 128.592s100.996 11.762 100.996 11.762 24.439-64.795-11.762-100.996-118.99-48.961-128.592-39.358z" fill="#918bd7"/></g><g><path d="m437.019 437.019c9.603-9.603-3.157-92.391-39.358-128.592s-100.996-11.762-100.996-11.762-24.439 64.795 11.762 100.996 118.99 48.961 128.592 39.358z" fill="#918bd7"/></g><g><path d="m437.019 74.981c-9.603-9.603-92.391 3.157-128.592 39.358s-11.762 100.996-11.762 100.996 64.795 24.439 100.996-11.762 48.961-118.99 39.358-128.592z" fill="#78cbec"/></g><g><path d="m74.981 437.019c9.603 9.603 92.391-3.157 128.592-39.358s11.762-100.996 11.762-100.996-64.795-24.439-100.996 11.762-48.961 118.99-39.358 128.592z" fill="#78cbec"/></g><g><path d="m145.158 145.158s-30.103 11.348-60.735 7.115c7.001 19.407 16.955 38.339 29.916 51.3 36.201 36.201 100.996 11.762 100.996 11.762s24.439-64.795-11.762-100.996c-12.961-12.961-31.893-22.915-51.3-29.916 4.233 30.632-7.115 60.735-7.115 60.735z" fill="#736acb"/></g><g><path d="m366.842 366.842s30.103-11.348 60.735-7.115c-7.001-19.407-16.955-38.339-29.916-51.3-36.201-36.201-100.996-11.762-100.996-11.762s-24.439 64.795 11.762 100.996c12.961 12.961 31.893 22.915 51.3 29.916-4.233-30.632 7.115-60.735 7.115-60.735z" fill="#736acb"/></g><g><path d="m366.842 145.158s-11.348-30.103-7.115-60.735c-19.407 7.001-38.339 16.955-51.3 29.916-36.201 36.201-11.762 100.996-11.762 100.996s64.795 24.439 100.996-11.762c12.961-12.961 22.915-31.893 29.916-51.3-30.632 4.233-60.735-7.115-60.735-7.115z" fill="#34b5e1"/></g><g><path d="m145.158 366.842s11.348 30.103 7.115 60.735c19.407-7.001 38.339-16.955 51.3-29.916 36.201-36.201 11.762-100.996 11.762-100.996s-64.795-24.439-100.996 11.762c-12.961 12.961-22.915 31.893-29.916 51.3 30.632-4.233 60.735 7.115 60.735 7.115z" fill="#34b5e1"/></g><g><path d="m256 0c-13.58 0-63.098 67.563-63.098 118.759s63.098 79.732 63.098 79.732 63.098-28.536 63.098-79.732-49.518-118.759-63.098-118.759z" fill="#60d9a7"/></g><g><path d="m256 99.246s-29.31-13.261-47.977-37.915c-8.773 18.673-15.121 39.099-15.121 57.429 0 51.196 63.098 79.732 63.098 79.732s63.098-28.536 63.098-79.732c0-18.329-6.348-38.755-15.121-57.429-18.667 24.653-47.977 37.915-47.977 37.915z" fill="#00c67f"/></g><g><path d="m256 512c13.58 0 63.098-67.563 63.098-118.759s-63.098-79.732-63.098-79.732-63.098 28.536-63.098 79.732 49.518 118.759 63.098 118.759z" fill="#60d9a7"/></g><g><path d="m256 412.754s29.31 13.261 47.977 37.915c8.773-18.673 15.121-39.099 15.121-57.429 0-51.196-63.098-79.732-63.098-79.732s-63.098 28.536-63.098 79.732c0 18.329 6.348 38.755 15.121 57.429 18.667-24.653 47.977-37.915 47.977-37.915z" fill="#00c67f"/></g><g><path d="m512 256c0-13.58-67.563-63.098-118.759-63.098s-79.732 63.098-79.732 63.098 28.536 63.098 79.732 63.098 118.759-49.518 118.759-63.098z" fill="#ff8997"/></g><g><path d="m0 256c0 13.58 67.563 63.098 118.759 63.098s79.732-63.098 79.732-63.098-28.536-63.098-79.732-63.098-118.759 49.518-118.759 63.098z" fill="#ff8997"/></g><g><path d="m412.754 256s13.261-29.31 37.915-47.977c-18.673-8.773-39.099-15.121-57.429-15.121-51.196 0-79.732 63.098-79.732 63.098s28.536 63.098 79.732 63.098c18.329 0 38.755-6.348 57.429-15.121-24.653-18.667-37.915-47.977-37.915-47.977z" fill="#fc5c70"/></g><g><path d="m99.246 256s-13.261 29.31-37.915 47.977c18.673 8.773 39.099 15.121 57.429 15.121 51.196 0 79.732-63.098 79.732-63.098s-28.536-63.098-79.732-63.098c-18.329 0-38.755 6.348-57.429 15.121 24.653 18.667 37.915 47.977 37.915 47.977z" fill="#fc5c70"/></g><g><g><circle cx="256" cy="256" fill="#f8e86a" r="87.565"/></g></g><g><path d="m256 256c0-32.406 17.617-60.679 43.783-75.821-12.883-7.455-27.828-11.744-43.783-11.744-48.361 0-87.565 39.204-87.565 87.565s39.204 87.565 87.565 87.565c15.955 0 30.9-4.288 43.783-11.744-26.166-15.142-43.783-43.415-43.783-75.821z" fill="#fab659"/></g><g><circle cx="256" cy="99.246" fill="#f2f2f2" r="20.604"/></g><g><circle cx="256" cy="412.754" fill="#f2f2f2" r="20.604"/></g><g><circle cx="366.842" cy="145.158" fill="#f2f2f2" r="20.604"/></g><g><circle cx="145.158" cy="366.842" fill="#f2f2f2" r="20.604"/></g><g><circle cx="412.754" cy="256" fill="#f2f2f2" r="20.604"/></g><g><circle cx="99.246" cy="256" fill="#f2f2f2" r="20.604"/></g><g><circle cx="366.842" cy="366.842" fill="#f2f2f2" r="20.604"/></g><g><circle cx="145.158" cy="145.158" fill="#f2f2f2" r="20.604"/></g><g><g><circle cx="172.817" cy="55.179" fill="#78cbec" r="7.726"/></g><g><circle cx="339.183" cy="456.821" fill="#78cbec" r="7.726"/></g><g><circle cx="55.179" cy="172.817" fill="#60d9a7" r="7.726"/></g><g><circle cx="456.821" cy="339.183" fill="#60d9a7" r="7.726"/></g><g><circle cx="55.179" cy="339.183" fill="#918bd7" r="7.726"/></g><g><circle cx="456.821" cy="172.817" fill="#918bd7" r="7.726"/></g><g><circle cx="172.817" cy="456.821" fill="#ff8997" r="7.726"/></g><g><circle cx="339.183" cy="55.179" fill="#ff8997" r="7.726"/></g></g><g><g><path d="m204.491 265.503c-4.143 0-7.5-3.358-7.5-7.5v-9.898c0-4.142 3.357-7.5 7.5-7.5s7.5 3.358 7.5 7.5v9.898c0 4.142-3.357 7.5-7.5 7.5z" fill="#423e4f"/></g><g><path d="m307.509 265.503c-4.143 0-7.5-3.358-7.5-7.5v-9.898c0-4.142 3.357-7.5 7.5-7.5s7.5 3.358 7.5 7.5v9.898c0 4.142-3.358 7.5-7.5 7.5z" fill="#423e4f"/></g><g><path d="m256 271.395c-7.372 0-14.383-3.192-19.234-8.759-2.722-3.123-2.396-7.86.727-10.582 3.122-2.721 7.859-2.396 10.582.727 2.002 2.297 4.891 3.614 7.926 3.614s5.924-1.317 7.926-3.614c2.723-3.123 7.457-3.448 10.582-.727 3.122 2.722 3.448 7.459.727 10.582-4.853 5.567-11.864 8.759-19.236 8.759z" fill="#423e4f"/></g></g></g></svg>