<svg id="Capa_1" enable-background="new 0 0 512 512" height="512" viewBox="0 0 512 512" width="512" xmlns="http://www.w3.org/2000/svg"><g><path d="m497.577 322.531v-267.779c0-7.809-6.33-14.139-14.139-14.14h14.423c-.001 0-.001 0-.001 0h-410.948c-7.809 0-14.14 6.331-14.14 14.14v267.779c0 7.809 6.331 14.14 14.14 14.14h396.526c7.809.001 14.139-6.33 14.139-14.14z" fill="#e19974"/><path d="m497.86 40.612h-16.482c7.809.001 14.139 6.331 14.139 14.14v267.779c0 7.809-6.331 14.14-14.14 14.14h16.483c7.809 0 14.14-6.331 14.14-14.14v-267.779c0-7.809-6.331-14.14-14.14-14.14z" fill="#dc8758"/><path d="m464.878 308.391c2.441 0 4.419-1.978 4.419-4.419v-230.661c0-2.44-1.978-4.419-4.418-4.419h-359.408c-2.44 0-4.419 1.978-4.419 4.419v230.661c0 2.44 1.978 4.419 4.419 4.419h373.83.001z" fill="#728192"/><g><path d="m168.766 309.215v-4.695c-16.68 0-119.281 0-134.411 0-18.974 0-34.355 15.381-34.355 34.355v132.513h185.76c0-21.819 0-120.931 0-132.562 0-12.631-6.83-23.658-16.994-29.611z" fill="#eaf6ff"/><path d="m168.766 304.52c-13.225 0-11.596 0-18.675 0l5.873 1.155c14.662 3.899 25.468 17.26 25.468 33.15v132.562h21.639v-132.561c0-18.947-15.359-34.306-34.305-34.306z" fill="#d8ecfe"/><path d="m87.082 183.711h28.491c35.454 0 64.195 28.741 64.195 64.195 0 35.454-28.741 64.195-64.195 64.195h-28.491c-35.454 0-64.195-28.741-64.195-64.195 0-35.454 28.741-64.195 64.195-64.195z" fill="#3d5168"/><path d="m139.839 171.414h36.334c13.969 0 25.293 11.324 25.293 25.293v.155c0 13.969-11.324 25.293-25.293 25.293h-36.334z" fill="#f89580"/><path d="m62.816 222.155h-36.333c-13.969 0-25.293-11.324-25.293-25.293v-.155c0-13.969 11.324-25.293 25.293-25.293h36.334v50.741z" fill="#ffb09e"/><path d="m101.213 213.831v-.02h-31.181v73.031l31.181 45.549v.02l31.181-45.549v-73.031z" fill="#ffa78f"/><path d="m128.008 471.388v-134.431l26.796-32.918-22.41-17.177-28.502 41.637c-.645.942-1.661 1.412-2.678 1.412v141.476c12.007.001 23.964.001 26.794.001z" fill="#c4e2ff"/><path d="m101.213 329.911c-1.017 0-2.034-.471-2.678-1.412l-28.502-41.637-22.41 17.177 26.795 32.918c-.491 67.959-.399 38.8-.399 134.431h27.194z" fill="#d8ecfe"/><path d="m242.03 465.978v-86.195c0-2.987-2.421-5.409-5.408-5.41h-39.846c-2.988 0-5.41 2.422-5.41 5.41v91.604h45.254c2.988.001 5.41-2.421 5.41-5.409z" fill="#eaf6ff"/><path d="m235.852 374.373 47.916-26.174c1.394-.762 2.261-2.223 2.261-3.812 0-4.261-3.454-7.716-7.716-7.716h-46.734c-9.941 0-18.678 6.591-21.408 16.15l-6.155 21.552h49.148z" fill="#ffcebf"/><path d="m295.624 336.672h-19.475c4.261 0 7.716 3.454 7.716 7.716 0 1.589-.867 3.05-2.261 3.812l-47.916 26.174h19.475l47.916-26.174c1.394-.762 2.261-2.223 2.261-3.812 0-4.262-3.454-7.716-7.716-7.716z" fill="#ffb09e"/><path d="m253.931 374.373h-19.475c2.988 0 5.41 2.422 5.41 5.41v86.195c0 2.988-2.422 5.41-5.41 5.41h19.475c2.988 0 5.41-2.422 5.41-5.41v-86.195c0-2.987-2.422-5.41-5.41-5.41z" fill="#d8ecfe"/><path d="m162.983 209.973v-26.404c0-42.805-35.807-74.005-70.416-74.005-37.182 4.176-66.088 35.708-66.088 74.005v26.404c0 38.297 28.906 69.829 66.088 74.005 34.495.001 70.416-31.07 70.416-74.005z" fill="#ffcebf"/><path d="m92.568 109.564c37.182 4.176 66.088 35.708 66.088 74.005v26.404c0 38.297-28.906 69.829-66.088 74.005 45.674 5.131 83.399-30.364 83.399-74.005v-26.404c0-43.717-37.802-79.13-83.399-74.005z" fill="#ffb09e"/><g><path d="m101.213 256.438c-13.228 0-23.991-10.762-23.991-23.99 0-4.482 3.633-8.115 8.115-8.115s8.115 3.633 8.115 8.115c0 4.28 3.481 7.761 7.762 7.761s7.762-3.481 7.762-7.761c0-4.482 3.633-8.115 8.115-8.115s8.115 3.633 8.115 8.115c-.002 13.229-10.765 23.99-23.993 23.99z" fill="#ffa799"/></g><path d="m148.873 224.334c-.993 0-8.139 0-9.197 0-3.585 0-6.492 2.907-6.492 6.492s2.907 6.492 6.492 6.492h9.197c3.585 0 6.492-2.907 6.492-6.492s-2.907-6.492-6.492-6.492z" fill="#fe8f83"/><path d="m53.552 224.334h9.197c3.585 0 6.492 2.907 6.492 6.492s-2.907 6.492-6.492 6.492c-1.061 0-8.205 0-9.197 0-3.585 0-6.492-2.907-6.492-6.492s2.907-6.492 6.492-6.492z" fill="#fe8f83"/><path d="m101.536 69.373h-.416c-3.594 0-7.13.239-10.611.653 44.008 5.248 78.138 42.674 78.138 88.096v17.592h21.639v-17.592c-.001-49.014-39.736-88.749-88.75-88.749z" fill="#3d5168"/><g><g><path d="m90.508 70.027c-44.008 5.247-78.138 42.674-78.138 88.095v17.592h43.787c25.062 0 45.378-20.316 45.378-45.378 0 25.062 20.317 45.378 45.378 45.378h21.733v-17.592c0-45.421-34.129-82.848-78.138-88.095z" fill="#57697d"/></g></g><g><g><path d="m137.743 216.808c-4.268 0-7.726-3.459-7.726-7.726v-10.147c0-4.267 3.459-7.726 7.726-7.726h5.639c4.268 0 7.726 3.459 7.726 7.726 0 3.544-2.385 6.53-5.639 7.441v2.706c.001 4.267-3.458 7.726-7.726 7.726z" fill="#3d5168"/></g></g><g><g><path d="m64.769 216.808c-4.268 0-7.726-3.459-7.726-7.726v-2.706c-3.253-.911-5.638-3.897-5.638-7.441 0-4.267 3.459-7.726 7.726-7.726h5.638c4.268 0 7.726 3.459 7.726 7.726v10.147c0 4.267-3.459 7.726-7.726 7.726z" fill="#3d5168"/></g></g></g><g fill="#eaf6ff"><path d="m389.531 166.355h-35.738c-4.268 0-7.726 3.459-7.726 7.726s3.459 7.726 7.726 7.726h35.738c4.268 0 7.726-3.459 7.726-7.726s-3.458-7.726-7.726-7.726z"/><path d="m389.531 191.434h-35.738c-4.268 0-7.726 3.459-7.726 7.726s3.459 7.726 7.726 7.726h35.738c4.268 0 7.726-3.459 7.726-7.726s-3.458-7.726-7.726-7.726z"/><path d="m301.144 178.894h-13.389v-13.389c0-4.267-3.459-7.726-7.726-7.726s-7.726 3.459-7.726 7.726v13.389h-13.898c-4.268 0-7.726 3.459-7.726 7.726s3.459 7.726 7.726 7.726h13.898v13.898c0 4.267 3.459 7.726 7.726 7.726s7.726-3.459 7.726-7.726v-13.898h13.389c4.268 0 7.726-3.459 7.726-7.726 0-4.266-3.459-7.726-7.726-7.726z"/><path d="m233.83 146.821h-13.82c-4.268 0-7.726 3.459-7.726 7.726s3.459 7.726 7.726 7.726h6.094v56.929c0 4.267 3.459 7.726 7.726 7.726 4.268 0 7.726-3.459 7.726-7.726v-64.655c0-4.267-3.458-7.726-7.726-7.726z"/><path d="m448.387 211.476h-17.793c3.471-4.661 8.158-11.092 14.343-19.929 4.106-5.866 6.785-11.418 7.964-16.503.059-.254.106-.511.138-.769l.314-2.463c.041-.324.062-.65.062-.977 0-13.241-10.773-24.015-24.014-24.015-11.451 0-21.36 8.146-23.564 19.369-.822 4.187 1.905 8.248 6.093 9.07 4.194.824 8.249-1.906 9.07-6.093.785-3.994 4.318-6.894 8.401-6.894 4.583 0 8.335 3.619 8.551 8.149l-.187 1.473c-.785 3.078-2.629 6.706-5.488 10.792-10.076 14.396-16.089 22.269-19.319 26.499-3.975 5.203-5.969 7.815-4.661 12.067.773 2.51 2.671 4.434 5.21 5.28.788.262 1.612.396 2.442.396h32.438c4.268 0 7.726-3.459 7.726-7.726s-3.458-7.726-7.726-7.726z"/><path d="m325.718 146.821h-13.82c-4.268 0-7.726 3.459-7.726 7.726s3.459 7.726 7.726 7.726h6.094v56.929c0 4.267 3.459 7.726 7.726 7.726 4.268 0 7.726-3.459 7.726-7.726v-64.655c.001-4.267-3.458-7.726-7.726-7.726z"/></g><path d="m479.301 68.892h-16.483c2.441 0 4.419 1.978 4.419 4.419v230.661c0 2.44-1.978 4.419-4.419 4.419h16.483c2.441 0 4.419-1.978 4.419-4.419v-230.661c0-2.44-1.979-4.419-4.419-4.419z" fill="#57697d"/><path d="m425.097 308.391c4.393 0 7.954-3.561 7.954-7.954v-27.264c0-4.392-3.561-7.953-7.953-7.954h-65.38c-4.393 0-7.954 3.561-7.954 7.954v27.264c0 4.393 3.561 7.954 7.954 7.954h79.801.001z" fill="#5de1c4"/><path d="m439.52 265.22h-16.483c4.393 0 7.954 3.561 7.954 7.954v27.264c0 4.393-3.561 7.954-7.954 7.954h16.483c4.393 0 7.954-3.561 7.954-7.954v-27.264c0-4.393-3.562-7.954-7.954-7.954z" fill="#0ed2b3"/></g></svg>