<?xml version="1.0" encoding="utf-8"?>
<!-- Generator: Adobe Illustrator 23.0.1, SVG Export Plug-In . SVG Version: 6.00 Build 0)  -->
<svg version="1.1" id="_x31_px" xmlns="http://www.w3.org/2000/svg" xmlns:xlink="http://www.w3.org/1999/xlink" x="0px" y="0px"
	 viewBox="0 0 512 512" style="enable-background:new 0 0 512 512;" xml:space="preserve">
<style type="text/css">
	.st0{fill:#FFFFFF;}
</style>
<g>
	<g>
		<path class="st0" d="M411.2,393.1h-14.8V178.8c0-10-8.1-18.1-18.1-18.1h-33c-10,0-18.1,8.1-18.1,18.1v214.3h-37.5V275.9
			c0-10-8.1-18.1-18.1-18.1h-33c-10,0-18.1,8.1-18.1,18.1v117.2h-37.5v-60.7c0-10-8.1-18.1-18.1-18.1h-33c-10,0-18.1,8.1-18.1,18.1
			v60.7H98.3c-3.7,0-6.7,3-6.7,6.7s3,6.7,6.7,6.7h312.8c3.7,0,6.7-3,6.7-6.7S414.9,393.1,411.2,393.1z M169.6,393.1h-42.3v-60.7
			c0-2.6,2.1-4.6,4.6-4.6h33c2.6,0,4.6,2.1,4.6,4.6V393.1L169.6,393.1z M276.3,393.1H234V275.9c0-2.6,2.1-4.6,4.6-4.6h33
			c2.6,0,4.6,2.1,4.6,4.6V393.1z M382.9,393.1h-42.3V178.8c0-2.6,2.1-4.6,4.6-4.6h33c2.6,0,4.6,2.1,4.6,4.6L382.9,393.1L382.9,393.1
			z"/>
	</g>
</g>
<g>
	<g>
		<path class="st0" d="M396.4,69.1c0.1-1.8-0.6-3.7-2-5.1c-1.4-1.4-3.3-2-5.1-2c-0.1,0-0.2,0-0.3,0h-40.7c-3.7,0-6.7,3-6.7,6.7
			c0,3.7,3,6.7,6.7,6.7h25.1L306.9,142l-25.1-25.1c-1.3-1.3-3-2-4.8-2c-1.8,0-3.5,0.7-4.8,2l-121,121c-2.6,2.6-2.6,6.9,0,9.5
			c1.3,1.3,3,2,4.8,2s3.4-0.7,4.8-2L277,131.2l25.1,25.1c2.6,2.6,6.9,2.6,9.5,0L382.9,85v22.8c0,3.7,3,6.7,6.7,6.7
			c3.7,0,6.7-3,6.7-6.7V69.4C396.4,69.3,396.4,69.2,396.4,69.1z"/>
	</g>
</g>
<g>
	<g>
		<circle class="st0" cx="133.4" cy="266.1" r="6.7"/>
	</g>
</g>
</svg>
